<svg width="50" height="74" viewBox="0 0 50 74" fill="none" xmlns="http://www.w3.org/2000/svg">
<path d="M25.0002 0C17.0179 0 10.522 6.7533 10.522 15.0526V37C10.522 45.3009 17.0179 52.0526 25.0002 52.0526C32.9826 52.0526 39.4785 45.3009 39.4785 37V15.0526C39.4785 6.7533 32.9826 0 25.0002 0ZM25.0002 48.8352C19.3119 48.8352 14.6065 44.3743 13.8552 38.6087H36.1437C35.394 44.3759 30.6886 48.8352 25.0002 48.8352ZM36.2611 35.3913H13.7394V15.0526C13.7394 8.52609 18.7907 3.21739 25.0002 3.21739C31.2098 3.21739 36.2611 8.52609 36.2611 15.0526V35.3913Z" fill="#FFB400"/>
<path d="M47.5218 28.9565C46.6338 28.9565 45.9131 29.6772 45.9131 30.5652V37C45.9131 48.5312 36.5312 57.9131 25.0001 57.9131C13.4689 57.9131 4.08702 48.5312 4.08702 37V30.5652C4.08702 29.6772 3.36632 28.9565 2.47832 28.9565C1.59032 28.9565 0.869629 29.6772 0.869629 30.5652V37C0.869629 49.7618 10.8355 60.2151 23.3914 61.0484V70.7826H15.3479C14.4599 70.7826 13.7392 71.5033 13.7392 72.3913C13.7392 73.2793 14.4599 74 15.3479 74H34.6522C35.5402 74 36.2609 73.2793 36.2609 72.3913C36.2609 71.5033 35.5402 70.7826 34.6522 70.7826H26.6088V61.0484C39.1646 60.2151 49.1305 49.7618 49.1305 37V30.5652C49.1305 29.6772 48.4098 28.9565 47.5218 28.9565Z" fill="#FFB400"/>
</svg>
